<svg id="Layer_1" data-name="Layer 1" xmlns="http://www.w3.org/2000/svg" viewBox="0 0 2501.72 2501.72"><defs><style>.cls-1{fill:none;}.cls-2{fill:#004be0;}.cls-3{font-size:106.08px;font-family:Cyberverse-Italic, Cyberverse;font-style:italic;}</style></defs><title>Artboard 3 copy</title><path class="cls-1" d="M651.82,1456.24l45,16.87q6,22,12,44l-45-16.87Z"/><path d="M671.24,1305.69l45,16.86q24,87.93,48,175.86c8.55,27.77-8,37.26-33,27.09Q701.26,1415.6,671.24,1305.69Z"/><path class="cls-1" d="M786.74,1506.84l45,16.87,12,44-45-16.87Z"/><path d="M1176.72,1385.29l12,44c8.23,26.82-6.42,37.89-31.6,27.6l-92.69-34.75c-27.35-10.18-48.3-31.78-55.61-60.32l130.84,49.07q5.44,2,3.44-5.29l-8-29.31q-2-7.32-7.45-9.37l-87.22-32.71c-27.35-10.18-48.3-31.78-55.61-60.32l-12-44c-8.22-26.82,6.41-37.9,31.59-27.61l92.65,34.76a87.65,87.65,0,0,1,55.61,60.32l-130.8-49.07c-3.64-1.37-4.79.4-3.45,5.28q4,14.65,8,29.31,2,7.33,7.46,9.37L1121.1,1325A87.71,87.71,0,0,1,1176.72,1385.29Z"/><path d="M1121.86,1632.25l136.29,51.11c8.23,26.82-6.42,37.89-31.6,27.6l-92.68-34.75c-27.36-10.18-48.31-31.78-55.62-60.32l-36-131.89c-8.22-26.82,6.41-37.9,31.59-27.61l92.65,34.76a87.65,87.65,0,0,1,55.61,60.32l-136.25-51.12q6,22,12,44l136.26,51.11c8.23,26.82-6.4,37.9-31.59,27.61l-92.67-34.76Q1115.86,1610.27,1121.86,1632.25Z"/><polygon class="cls-2" points="1099.77 1694.48 1279.61 1761.95 1339.7 1981.76 1159.78 1914.29 1099.77 1694.48"/><path d="M836.82,1290.65q2,7.33,7.45,9.37l81.78,30.67q5.44,2,3.45-5.28-23-84.27-46.06-168.53l43.6,16.36q24,87.93,48.07,175.85c8.23,26.82-6.41,37.89-31.6,27.61l-92.68-34.76c-27.36-10.18-48.31-31.78-55.62-60.32q-24-87.91-48-175.85a87.66,87.66,0,0,1,55.6,60.32Z"/><path d="M995.59,1559l-28-102.59c-7.6-25,3.65-39,29.09-28.53l60.09,219.81-20.56-7.71c-21.54-8.22-36.23-26.53-49.13-44.73L877.92,1449.13l40,146.54-41.12-15.42q-30-109.9-60-219.81l20.55,7.71c21.55,8.23,36.28,26.57,49.22,44.76Q941.07,1486,995.59,1559Z"/><path d="M1102.2,1813.9q6,22,12,44c8.23,26.82-6.42,37.9-31.6,27.61l-92.69-34.76c-27.35-10.17-48.3-31.77-55.61-60.31l130.84,49.06q5.44,2.05,3.44-5.28l-8-29.31q-2-7.32-7.45-9.37l-87.22-32.71c-27.35-10.18-48.3-31.78-55.61-60.32l-12-44c-8.22-26.81,6.41-37.89,31.59-27.6l92.65,34.76a87.66,87.66,0,0,1,55.61,60.31l-130.8-49.07q-5.46-2-3.45,5.28,4,14.65,8,29.31,2,7.34,7.45,9.38l87.22,32.71A87.71,87.71,0,0,1,1102.2,1813.9Z"/><path d="M889.14,1734.19l12,44c8.23,26.82-6.41,37.89-31.59,27.61L776.87,1771c-27.35-10.18-48.3-31.77-55.61-60.31l130.83,49.06c3.64,1.36,4.79-.39,3.45-5.28l-8-29.31q-2-7.32-7.45-9.37l-87.22-32.71c-27.36-10.18-48.3-31.79-55.61-60.32q-6-22-12-44c-8.21-26.81,6.41-37.9,31.6-27.6l92.65,34.75a87.74,87.74,0,0,1,55.61,60.32l-130.81-49.07q-5.44-2-3.45,5.28l8,29.31q2,7.34,7.45,9.38l87.21,32.71A87.68,87.68,0,0,1,889.14,1734.19Z"/><path d="M670.53,1077.06c27.65,9.89,47.57,32.73,55.61,60.31,6.38,21.89-1.55,38.42-26.17,29.51a2.45,2.45,0,0,0,.08.29c24.78,11,43.34,31.61,50.13,58.13q6,22,12,44c8.23,26.82-6.42,37.89-31.6,27.6l-92.69-34.75c-27.35-10.18-48.3-31.78-55.61-60.32l-48-175.85Zm-80.65,9.2,34,124.57q2,7.32,7.46,9.37l81.77,30.67q5.46,2,3.45-5.29l-10-36.63-27.26-10.23c-27.35-10.17-48.3-31.78-55.61-60.32L694.56,1165q-6-22-12-44Z"/><polygon class="cls-2" points="1170.34 1250.51 1230.17 1470.08 1425.93 1347.54 1365.65 1127.91 1170.34 1250.51"/><polygon class="cls-2" points="1238.26 1500.17 1298.09 1719.75 1493.84 1597.2 1433.56 1377.58 1238.26 1500.17"/><polygon class="cls-2" points="1308.88 1749.44 1368.71 1969.02 1564.47 1846.47 1504.19 1626.85 1308.88 1749.44"/><polygon class="cls-2" points="1180.02 1035.71 1349.46 1099.28 1160.67 1217.69 990.96 1153.9 1180.02 1035.71"/><polygon class="cls-2" points="953.74 950.83 1143.94 1021.91 955.15 1140.32 765.02 1069.04 953.74 950.83"/><polygon class="cls-2" points="727.55 865.9 917.75 936.98 728.96 1055.39 538.83 984.11 727.55 865.9"/><polygon class="cls-2" points="1602.79 1379.37 1542.96 1525.93 1715.98 1394.68 1775.81 1248.27 1602.79 1379.37"/><polygon class="cls-2" points="1413.77 1182.17 1577.52 1057.88 1758.8 1226.63 1595.13 1350.47 1413.77 1182.17"/><polygon class="cls-2" points="1211.09 993.3 1374.84 869.01 1556.12 1037.77 1392.45 1161.6 1382.06 1111.6 1249.07 1027.59 1211.09 993.3"/><polygon class="cls-2" points="1008.52 805.3 1172.27 681.02 1353.55 849.77 1189.88 973.61 1008.52 805.3"/><polygon class="cls-2" points="1195.72 663.86 1359.47 539.57 1540.76 708.32 1377.08 832.16 1195.72 663.86"/><polygon class="cls-2" points="1398.24 852.15 1561.99 727.87 1743.27 896.62 1579.6 1020.46 1398.24 852.15"/><polygon class="cls-2" points="1600.61 1040.1 1764.36 915.82 1945.64 1084.57 1781.97 1208.4 1600.61 1040.1"/><polygon class="cls-2" points="1804.11 1228.55 1745.53 1372.26 1901.82 1254.82 1961.37 1109.17 1804.11 1228.55"/><polygon class="cls-2" points="1730.75 1409.01 1672.17 1552.72 1828.81 1433.96 1887.61 1290.03 1730.75 1409.01"/><polygon class="cls-2" points="1655.95 1591.5 1597.37 1735.21 1755.05 1615.57 1812.99 1472.63 1655.95 1591.5"/><polygon class="cls-2" points="1527.39 1563.68 1520.23 1581.89 1539.47 1653.36 1641.53 1575.92 1700.02 1432.68 1527.39 1563.68"/><polygon class="cls-2" points="1545.44 1675.44 1625.86 1614.26 1567.67 1756.31 1545.44 1675.44"/><text class="cls-3" transform="translate(1395.07 532.41) rotate(43.03)">M</text><text class="cls-3" transform="matrix(0.73, 0.68, -0.68, 0.73, 1482.16, 613.71)">I</text><text class="cls-3" transform="translate(1504.87 634.91) rotate(43.03)">N</text><text class="cls-3" transform="matrix(0.73, 0.68, -0.68, 0.73, 1578.7, 703.83)">D</text><text class="cls-3" transform="translate(1648.76 769.24) rotate(43.03)"> </text><text class="cls-3" transform="translate(1686.62 804.59) rotate(43.03)">Y</text><text class="cls-3" transform="matrix(0.73, 0.68, -0.68, 0.73, 1756.66, 869.97)">O</text><text class="cls-3" transform="translate(1826.71 935.36) rotate(43.03)">U</text><text class="cls-3" transform="matrix(0.73, 0.68, -0.68, 0.73, 1896.76, 1000.77)">R</text></svg>